<svg id="Layer_1" enable-background="new 0 0 480.009 480.009" height="512" viewBox="0 0 480.009 480.009" width="512" xmlns="http://www.w3.org/2000/svg">
  <path d="m376.884 101.009v347c0 13.25-10.75 24-24 24h-302c-13.26 0-24-10.75-24-24v-416c0-13.25 10.74-24 24-24h233z" fill="#2ccbff"/>
  <path d="m340.997 65.122c1.748 1.748 1.184 4.7-1.083 5.686-148.8 64.75-248.121 202.746-258.043 371.991-2.139 36.49-54.988 33.013-54.988-1.726v-405.563c0-15.189 12.313-27.501 27.501-27.501 244.124 0 228.999-.5 230.524 1.025z" fill="#13baf1"/>
  <g fill="#7fdfff">
    <path d="m121.964 158.049h-16.11c-13.233 0-24-10.766-24-24v-16.08c0-13.234 10.767-24 24-24h16.141c13.283 0 24.028 10.759 24 24.048l-.03 16.077c-.031 13.21-10.797 23.955-24.001 23.955z"/>
    <path d="m121.884 278.009h-16c-13.233 0-24-10.766-24-24v-16c0-13.234 10.767-24 24-24h16c13.233 0 24 10.766 24 24v16c0 13.234-10.767 24-24 24z"/>
    <path d="m121.884 398.009h-16c-13.233 0-24-10.766-24-24v-16c0-13.234 10.767-24 24-24h16c13.233 0 24 10.766 24 24v16c0 13.234-10.767 24-24 24z"/>
    <path d="m376.884 101.009h-69c-13.26 0-24-10.75-24-24v-69z"/>
  </g>
  <path d="m415.134 225.459c12.24 0 22.53 9.22 23.85 21.4l14 128.55c1.55 14.2-9.58 26.6-23.86 26.6-4.743 0-165.431 0-164.04 0-12.396 0-22.034-10.775-20.695-23.071l14.385-132.082c1.324-12.161 11.589-21.397 23.822-21.397z" fill="#13baf1"/>
  <path d="m429.124 402.009h-164.23c-12.122 0-21.899-10.467-20.5-23.05l14.39-132.12c1.32-12.17 11.59-21.38 23.83-21.38h132.52c11.63 0 21.48 8.32 23.57 19.58.267 1.453-.705-7.144 14.27 130.38 1.549 14.197-9.586 26.59-23.85 26.59z" fill="#13baf1"/>
  <path d="m417.954 266.749c-65.72 0-120.9 49.47-128.05 114.8-1.27 11.62-11.03 20.46-22.73 20.46-2.224 0-7.527.276-12.88-3-7.07-4.322-10.75-12.188-9.9-20.05l14.39-132.12c1.32-12.17 11.59-21.38 23.83-21.38h132.52c8.629 0 16.278 4.58 20.505 11.543 8.494 13.994-2.567 29.747-17.685 29.747z" fill="#7fdfff"/>
  <path d="m460.936 374.545-13.995-128.552c-1.771-16.268-15.448-28.536-31.813-28.536h-10.195v-23.396c0-30.908-25.146-56.053-56.053-56.053-30.908 0-56.054 25.146-56.054 56.053v23.395h-10.195c-16.364 0-30.041 12.268-31.813 28.537l-13.995 128.552c-2.06 18.924 12.788 35.463 31.813 35.463h160.488c19.004.001 33.875-16.515 31.812-35.463zm-31.811 19.464h-160.488c-9.544 0-16.939-8.258-15.906-17.732l13.995-128.551c.886-8.134 7.724-14.269 15.906-14.269h10.195v20.191c0 4.418 3.582 8 8 8s8-3.582 8-8v-59.586c0-22.085 17.968-40.053 40.054-40.053 22.085 0 40.053 17.968 40.053 40.053v23.395h-50.637c-4.418 0-8 3.582-8 8s3.582 8 8 8h50.637v20.191c0 4.418 3.582 8 8 8s8-3.582 8-8v-20.191h10.195c8.183 0 15.021 6.134 15.906 14.268l13.995 128.551c1.034 9.488-6.374 17.733-15.905 17.733zm-52.244 46c-4.418 0-8 3.582-8 8 0 8.822-7.178 16-16 16h-302c-8.822 0-16-7.178-16-16v-416c0-8.822 7.178-16 16-16h225v61c0 17.645 14.355 32 32 32h69c7.112 0 10.683-8.631 5.657-13.657-100.152-100.152-93.669-94.509-97.092-95.188-1.105-.219 11.636-.155-234.565-.155-17.645 0-32 14.355-32 32v416c0 17.645 14.355 32 32 32h302c17.645 0 32-14.355 32-32 0-4.419-3.582-8-8-8zm-69-347c-8.822 0-16-7.178-16-16v-49.687l65.687 65.687zm-161.885 25.004c.026-13.284-10.715-24.047-24-24.047h-16.146c-13.233 0-24 10.766-24 24v16.085c0 13.234 10.767 24 24 24h16.115c13.209 0 23.976-10.746 24-23.954zm-16.031 16.054c-.008 4.403-3.597 7.984-8 7.984h-16.115c-4.411 0-8-3.589-8-8v-16.085c0-4.411 3.589-8 8-8h16.146c4.429 0 8.008 3.587 8 8.015zm15.916 103.942c0-13.234-10.767-24-24-24h-16c-13.233 0-24 10.766-24 24v16c0 13.234 10.767 24 24 24h16c13.233 0 24-10.766 24-24zm-16 16c0 4.411-3.589 8-8 8h-16c-4.411 0-8-3.589-8-8v-16c0-4.411 3.589-8 8-8h16c4.411 0 8 3.589 8 8zm-8 80h-16c-13.233 0-24 10.766-24 24v16c0 13.234 10.767 24 24 24h16c13.233 0 24-10.766 24-24v-16c0-13.234-10.767-24-24-24zm8 40c0 4.411-3.589 8-8 8h-16c-4.411 0-8-3.589-8-8v-16c0-4.411 3.589-8 8-8h16c4.411 0 8 3.589 8 8zm110.123-240h-55c-4.418 0-8-3.582-8-8s3.582-8 8-8h55c4.418 0 8 3.582 8 8s-3.582 8-8 8zm-23 120h-32c-4.418 0-8-3.582-8-8s3.582-8 8-8h32c4.418 0 8 3.582 8 8s-3.582 8-8 8zm-12 104c4.418 0 8 3.582 8 8s-3.582 8-8 8h-20c-4.418 0-8-3.582-8-8s3.582-8 8-8z" fill="#014479"/>
</svg>
