<svg xmlns="http://www.w3.org/2000/svg" xmlns:xlink="http://www.w3.org/1999/xlink" preserveAspectRatio="xMidYMid" width="816" height="812" viewBox="0 0 816 812">
  <g>
    <rect x="39" y="270" width="178" height="49" />
    <rect x="377" y="270" width="178" height="49" />
    <path d="M296.000,401.000 C237.458,401.000 190.000,353.542 190.000,295.000 C190.000,236.458 237.458,189.000 296.000,189.000 C354.542,189.000 402.000,236.458 402.000,295.000 C402.000,353.542 354.542,401.000 296.000,401.000 ZM296.000,233.000 C261.758,233.000 234.000,260.758 234.000,295.000 C234.000,329.242 261.758,357.000 296.000,357.000 C330.242,357.000 358.000,329.242 358.000,295.000 C358.000,260.758 330.242,233.000 296.000,233.000 Z" />
  </g>
  <path d="M547.000,496.000 L567.000,476.000 L813.000,722.000 L729.000,806.000 L488.000,565.000 L504.000,549.000 L473.773,518.773 C424.845,557.717 362.895,581.000 295.500,581.000 C137.270,581.000 9.000,452.730 9.000,294.500 C9.000,136.270 137.270,8.000 295.500,8.000 C453.730,8.000 582.000,136.270 582.000,294.500 C582.000,360.872 559.422,421.966 521.539,470.539 L547.000,496.000 ZM296.000,61.000 C166.765,61.000 62.000,165.765 62.000,295.000 C62.000,424.235 166.765,529.000 296.000,529.000 C425.235,529.000 530.000,424.235 530.000,295.000 C530.000,165.765 425.235,61.000 296.000,61.000 Z" />
</svg>
