<svg xmlns="http://www.w3.org/2000/svg" xmlns:xlink="http://www.w3.org/1999/xlink" preserveAspectRatio="xMidYMid" width="644" height="644" viewBox="0 0 644 644">
  <defs>
    <style>
      .cls-1, .cls-4 {
        fill: #fefefe;
      }

      .cls-1, .cls-2, .cls-5 {
        fill-rule: evenodd;
      }

      .cls-2 {
        fill: #ec1a23;
      }

      .cls-3, .cls-5 {
        fill: #000;
      }
    </style>
  </defs>
  <g>
    <path d="M14.000,322.000 C14.000,322.000 40.004,628.000 322.000,628.000 C603.996,628.000 631.000,322.000 631.000,322.000 L418.000,322.000 C418.000,322.000 420.621,418.000 322.000,418.000 C223.379,418.000 222.000,322.000 222.000,322.000 L14.000,322.000 Z" class="cls-1"/>
    <path d="M14.000,322.000 C14.000,322.000 40.004,16.000 322.000,16.000 C603.996,16.000 631.000,322.000 631.000,322.000 L418.000,322.000 C418.000,322.000 420.621,226.000 322.000,226.000 C223.379,226.000 222.000,322.000 222.000,322.000 L14.000,322.000 Z" class="cls-2"/>
    <rect x="30" y="298" width="185" height="48" class="cls-3"/>
    <rect x="429" y="298" width="185" height="48" class="cls-3"/>
    <circle cx="322" cy="322" r="85" class="cls-4"/>
    <circle cx="322" cy="322" r="41" class="cls-3"/>
    <path d="M322.000,442.000 C255.726,442.000 202.000,388.274 202.000,322.000 C202.000,255.726 255.726,202.000 322.000,202.000 C388.274,202.000 442.000,255.726 442.000,322.000 C442.000,388.274 388.274,442.000 322.000,442.000 ZM322.000,239.000 C276.160,239.000 239.000,276.160 239.000,322.000 C239.000,367.840 276.160,405.000 322.000,405.000 C367.840,405.000 405.000,367.840 405.000,322.000 C405.000,276.160 367.840,239.000 322.000,239.000 Z" class="cls-5"/>
    <path d="M322.000,644.000 C144.164,644.000 0.000,499.836 0.000,322.000 C0.000,144.164 144.164,0.000 322.000,0.000 C499.836,0.000 644.000,144.164 644.000,322.000 C644.000,499.836 499.836,644.000 322.000,644.000 ZM322.000,38.000 C165.151,38.000 38.000,165.151 38.000,322.000 C38.000,478.849 165.151,606.000 322.000,606.000 C478.849,606.000 606.000,478.849 606.000,322.000 C606.000,165.151 478.849,38.000 322.000,38.000 Z" class="cls-5"/>
  </g>
</svg>
